<svg width="227" height="228" viewBox="0 0 227 228" fill="none" xmlns="http://www.w3.org/2000/svg">
<g filter="url(#filter0_d_229_398)">
<circle cx="113.5" cy="111.5" r="93.5" stroke="#41D3BD" stroke-width="10" shape-rendering="crispEdges"/>
</g>
<g clip-path="url(#clip0_229_398)">
<path d="M91.2018 96.1724C78.8735 80.4477 89.3251 63.633 98.8133 58.3328C112.72 50.5644 136.07 52.9397 139.108 58.8635C141.75 64.0138 137.162 68.6286 137.162 68.6286C137.162 68.6286 144.149 70.4803 143.887 76.7659C143.627 83.0514 135.734 86.1502 135.734 86.1502C135.734 86.1502 143.863 91.1339 129.007 100.671C114.151 110.207 93.8415 99.5425 91.2018 96.1724Z" fill="#D88D48"/>
<path d="M165.379 165.221H61.7666C61.7666 165.221 64.9095 147.875 72.0298 137.891C79.1502 127.9 105.581 124.259 105.581 124.259L113.574 125.489L121.567 124.259C121.567 124.259 148.005 127.9 155.128 137.891C162.246 147.878 165.379 165.221 165.379 165.221Z" fill="#9FC9C1"/>
<path d="M139.163 127.619C137.961 136.447 130.49 141.735 123.956 144.715C117.456 147.68 110.021 147.68 103.52 144.715C96.9891 141.733 89.5206 136.444 88.314 127.619L92.9281 126.76C93.9678 134.374 100.702 138.772 106.232 141.131C111.032 143.18 116.445 143.18 121.245 141.131C126.777 138.77 133.514 134.374 134.549 126.758L139.163 127.619Z" fill="#79B2A7"/>
<path d="M134.551 126.76C133.471 134.697 126.2 139.139 120.551 141.421C116.18 143.187 111.301 143.187 106.931 141.421C101.284 139.139 94.0133 134.697 92.9307 126.76C100.995 124.106 112.129 122.962 112.322 122.945C113.238 122.883 113.741 122.876 113.741 122.876C113.741 122.876 114.244 122.883 115.16 122.945C115.353 122.959 126.486 124.104 134.551 126.76Z" fill="#F1B69A"/>
<path d="M113.4 133.067C109.522 133.067 106.382 129.93 106.382 126.063V112.68H120.42V126.063C120.42 129.93 117.277 133.067 113.4 133.067Z" fill="#F1B69A"/>
<path d="M120.42 111.133V119.349C120.42 119.349 118.064 123.44 113.4 123.44C109.653 123.44 106.382 119.894 106.382 119.894V111.133H120.42Z" fill="#150A08"/>
<path d="M93.7626 96.7483C89.9688 90.9935 85.5645 94.692 85.5645 98.7428C85.5645 104.609 91.9408 109.662 95.5845 105.452C99.2281 101.239 93.7626 96.7483 93.7626 96.7483Z" fill="#F1B69A"/>
<path d="M92.9328 99.4068C90.5697 95.0014 87.3052 99.1117 88.5523 100.744" stroke="#E07E61" stroke-width="3.2515" stroke-miterlimit="10" stroke-linecap="round"/>
<path d="M131.677 96.7483C135.474 90.9935 139.876 94.692 139.876 98.7428C139.876 104.609 133.499 109.662 129.856 105.452C126.212 101.239 131.677 96.7483 131.677 96.7483Z" fill="#F1B69A"/>
<path d="M132.507 99.4068C134.87 95.0014 138.135 99.1117 136.888 100.744" stroke="#E07E61" stroke-width="3.2515" stroke-miterlimit="10" stroke-linecap="round"/>
<path d="M112.701 119.349C97.7041 119.344 88.8359 102.986 92.3412 86.1907C95.2289 72.351 130.208 72.3557 133.096 86.1907C136.601 102.986 127.707 119.354 112.701 119.349Z" fill="#F1B69A"/>
<path opacity="0.5" d="M110.71 102.534C112.253 103.27 115.729 101.639 115.803 102.534C115.875 103.429 113.958 104.222 113.257 104.222C112.556 104.222 110.71 102.534 110.71 102.534Z" fill="#F1B69A"/>
<path d="M110.76 98.0216C108.571 102.744 111.842 103.66 112.72 103.774" stroke="#E07E61" stroke-width="3.2515" stroke-miterlimit="10" stroke-linecap="round"/>
<path d="M107.483 106.34C113.273 107.449 117.863 106.525 119.719 105.045" stroke="#150A08" stroke-width="3.2515" stroke-miterlimit="10" stroke-linecap="round"/>
<path d="M106.79 85.153C105.852 83.0633 100.361 84.0201 99.5833 85.5052C98.806 86.9927 101.377 87.4092 103.284 87.3164C105.192 87.2236 107.386 86.4834 106.79 85.153Z" fill="#D88D48"/>
<path d="M118.431 86.8452C119.368 84.7555 124.86 85.7123 125.637 87.1998C126.415 88.6873 123.844 89.1038 121.937 89.011C120.029 88.9158 117.835 88.1756 118.431 86.8452Z" fill="#D88D48"/>
<path opacity="0.5" d="M111.368 109.189C113.469 109.193 116.478 108.103 116.945 109.189C117.41 110.274 114.847 112.442 113.256 112.287C111.666 112.133 108.971 109.181 111.368 109.189Z" fill="#F1B69A"/>
<path d="M102.822 93.2045C102.822 94.0351 103.497 94.7111 104.331 94.7111C105.163 94.7111 105.841 94.0375 105.841 93.2045C105.841 92.3715 105.166 91.698 104.331 91.698C103.497 91.698 102.822 92.3715 102.822 93.2045Z" fill="#150A08"/>
<path d="M122.618 93.2045C122.618 94.0351 121.944 94.7111 121.109 94.7111C120.277 94.7111 119.6 94.0375 119.6 93.2045C119.6 92.3715 120.274 91.698 121.109 91.698C121.944 91.698 122.618 92.3715 122.618 93.2045Z" fill="#150A08"/>
<path d="M102.484 71.0467C102.119 80.6286 124.009 85.7718 129.813 84.8888C135.617 84.0034 137.363 76.4612 128.254 70.2732C119.147 64.0852 102.646 66.7913 102.484 71.0467Z" fill="#D88D48"/>
</g>
<defs>
<filter id="filter0_d_229_398" x="0" y="0.737864" width="227" height="227" filterUnits="userSpaceOnUse" color-interpolation-filters="sRGB">
<feFlood flood-opacity="0" result="BackgroundImageFix"/>
<feColorMatrix in="SourceAlpha" type="matrix" values="0 0 0 0 0 0 0 0 0 0 0 0 0 0 0 0 0 0 127 0" result="hardAlpha"/>
<feOffset dy="2.73786"/>
<feGaussianBlur stdDeviation="7.5"/>
<feComposite in2="hardAlpha" operator="out"/>
<feColorMatrix type="matrix" values="0 0 0 0 0.254902 0 0 0 0 0.827451 0 0 0 0 0.741176 0 0 0 1 0"/>
<feBlend mode="normal" in2="BackgroundImageFix" result="effect1_dropShadow_229_398"/>
<feBlend mode="normal" in="SourceGraphic" in2="effect1_dropShadow_229_398" result="shape"/>
</filter>
<clipPath id="clip0_229_398">
<rect width="119" height="119" fill="white" transform="translate(54 45)"/>
</clipPath>
</defs>
</svg>
