<svg width="197" height="197" viewBox="0 0 197 197" fill="none" xmlns="http://www.w3.org/2000/svg">
<circle cx="98.5" cy="98.5" r="93.5" stroke="#304D6D" stroke-width="10"/>
<path d="M94.848 82.4406V55.6266H79.0707L71.4956 82.4406H94.848Z" fill="white"/>
<path d="M114.673 55.6266H100.211V82.4406H122.248L114.673 55.6266Z" fill="#FF8898"/>
<path d="M73.4986 55.6266H57.8933L44.5034 82.4406H65.9236L73.4986 55.6266Z" fill="#FF8898"/>
<path d="M150.356 82.4406L137.403 55.6266H120.246L127.821 82.4406H150.356Z" fill="white"/>
<path d="M78.7599 111.243C71.8594 111.243 66.2461 116.766 66.2461 123.553V149.475H91.272V123.553C91.272 116.766 85.6587 111.243 78.7599 111.243Z" fill="#94D5D2"/>
<path d="M136.855 114.618H112.723V138.749H136.855V114.618Z" fill="#94D5D2"/>
<path d="M126.437 93.0991C123.722 98.1967 118.396 101.514 111.983 101.514C105.572 101.514 100.244 98.1967 97.529 93.0991C94.814 98.1967 89.4856 101.514 83.0764 101.514C76.6656 101.514 71.3371 98.1967 68.6222 93.0991C65.9056 98.1967 60.5788 101.514 54.1663 101.514C52.7712 101.514 51.435 101.339 50.1577 101.041V149.475H60.8833V123.553C60.8833 113.809 68.9022 105.88 78.7599 105.88C88.616 105.88 96.6365 113.809 96.6365 123.553V149.475H145.796V100.823C144.26 101.272 142.618 101.516 140.893 101.516C134.481 101.514 129.152 98.1983 126.437 93.0991ZM142.22 111.935V141.43C142.22 142.912 141.019 144.111 139.539 144.111H110.043C108.561 144.111 107.362 142.91 107.362 141.43V111.935C107.362 110.453 108.562 109.255 110.043 109.255H139.537C141.019 109.255 142.22 110.455 142.22 111.935Z" fill="#FFDAC6"/>
<path d="M64.8981 87.8034H43.437C44.5734 92.711 48.8096 96.1514 54.1659 96.1514C59.5238 96.1514 63.76 92.711 64.8981 87.8034Z" fill="white"/>
<path d="M83.0762 96.1514C88.4325 96.1514 92.6687 92.7094 93.8051 87.8034H72.3457C73.4821 92.711 77.7183 96.1514 83.0762 96.1514Z" fill="#FF8898"/>
<path d="M111.983 96.1514C117.341 96.1514 121.575 92.7094 122.712 87.8034H101.254C102.39 92.711 106.625 96.1514 111.983 96.1514Z" fill="white"/>
<path d="M140.891 96.1514C146.249 96.1514 150.484 92.7094 151.62 87.8034H130.161C131.297 92.711 135.533 96.1514 140.891 96.1514Z" fill="#FF8898"/>
<path d="M156.756 83.3609L140.77 50.2638H54.5772L38.0548 83.3478C37.8059 83.8456 37.7273 84.3827 37.7944 84.8969C37.7879 84.9722 37.7715 85.0443 37.7715 85.1229C37.7715 90.9278 40.493 95.8436 44.7947 98.7354V154.839H151.157V98.0755C154.933 95.1247 157.286 90.5102 157.286 85.1212C157.286 84.6169 157.139 84.1518 156.898 83.749C156.857 83.6196 156.816 83.4886 156.756 83.3609ZM137.404 55.6266L150.355 82.4406H127.821L120.246 55.6266H137.404ZM100.211 55.6266H114.673L122.248 82.4406H100.211V55.6266ZM122.712 87.8034C121.575 92.711 117.341 96.1514 111.983 96.1514C106.625 96.1514 102.389 92.7094 101.252 87.8034H122.712ZM94.8482 55.6266V82.4406H71.4958L79.0709 55.6266H94.8482ZM93.8051 87.8034C92.6687 92.711 88.4341 96.1514 83.0762 96.1514C77.7183 96.1514 73.4821 92.7094 72.3457 87.8034H93.8051ZM57.8931 55.6266H73.4968L65.9234 82.4406H44.5032L57.8931 55.6266ZM43.4372 87.8034H64.8983C63.7619 92.711 59.5257 96.1514 54.1678 96.1514C48.8082 96.1514 44.5737 92.711 43.4372 87.8034ZM91.2719 149.475H66.246V123.553C66.246 116.764 71.8593 111.243 78.7598 111.243C85.6602 111.243 91.2735 116.766 91.2735 123.553V149.475H91.2719ZM145.794 149.475H96.6347V123.553C96.6347 113.809 88.6159 105.88 78.7581 105.88C68.902 105.88 60.8815 113.809 60.8815 123.553V149.475H50.1559V101.041C51.4331 101.339 52.7693 101.514 54.1645 101.514C60.5753 101.514 65.9037 98.1967 68.6204 93.0991C71.3353 98.1967 76.6637 101.514 83.0746 101.514C89.4854 101.514 94.8122 98.1967 97.5271 93.0991C100.242 98.1967 105.571 101.514 111.981 101.514C118.392 101.514 123.719 98.1967 126.436 93.0991C129.151 98.1967 134.479 101.514 140.891 101.514C142.614 101.514 144.256 101.272 145.794 100.822V149.475ZM140.891 96.1514C135.534 96.1514 131.297 92.7094 130.161 87.8034H151.62C150.486 92.711 146.249 96.1514 140.891 96.1514Z" fill="#586065"/>
<path d="M110.042 109.255C108.56 109.255 107.362 110.455 107.362 111.935V141.43C107.362 142.912 108.562 144.111 110.042 144.111H139.537C141.019 144.111 142.218 142.91 142.218 141.43V111.935C142.218 110.453 141.017 109.255 139.537 109.255H110.042ZM136.856 138.749H112.723V114.618H136.855V138.749H136.856Z" fill="#586065"/>
</svg>
